<svg width="1141" height="647" viewBox="0 0 1141 647" fill="none" xmlns="http://www.w3.org/2000/svg">
<mask id="mask0_65_64" style="mask-type:alpha" maskUnits="userSpaceOnUse" x="0" y="0" width="1141" height="647">
<rect width="1141" height="647" fill="white"/>
</mask>
<g mask="url(#mask0_65_64)">
<g opacity="0.3">
<path d="M0 0L1141 647" stroke="white"/>
<path d="M44.5703 -25.2734L1185.57 621.727" stroke="white"/>
<path d="M89.1406 -50.5469L1230.14 596.453" stroke="white"/>
<path d="M133.711 -75.8203L1274.71 571.18" stroke="white"/>
<path d="M178.281 -101.094L1319.28 545.906" stroke="white"/>
<path d="M222.852 -126.367L1363.85 520.633" stroke="white"/>
<path d="M267.422 -151.641L1408.42 495.359" stroke="white"/>
<path d="M311.992 -176.914L1452.99 470.086" stroke="white"/>
<path d="M356.562 -202.188L1497.56 444.812" stroke="white"/>
<path d="M401.133 -227.461L1542.13 419.539" stroke="white"/>
<path d="M445.703 -252.734L1586.7 394.266" stroke="white"/>
<path d="M490.273 -278.008L1631.27 368.992" stroke="white"/>
<path d="M534.844 -303.281L1675.84 343.719" stroke="white"/>
<path d="M-44.5703 25.2734L1096.43 672.273" stroke="white"/>
<path d="M-89.1406 50.5469L1051.86 697.547" stroke="white"/>
<path d="M-133.711 75.8203L1007.29 722.82" stroke="white"/>
<path d="M-178.281 101.094L962.719 748.094" stroke="white"/>
<path d="M-222.852 126.367L918.148 773.367" stroke="white"/>
<path d="M-267.422 151.641L873.578 798.641" stroke="white"/>
<path d="M-311.992 176.914L829.008 823.914" stroke="white"/>
<path d="M-356.562 202.188L784.438 849.188" stroke="white"/>
<path d="M-401.133 227.461L739.867 874.461" stroke="white"/>
<path d="M-445.703 252.734L695.297 899.734" stroke="white"/>
<path d="M-490.273 278.008L650.727 925.008" stroke="white"/>
<path d="M-534.844 303.281L606.156 950.281" stroke="white"/>
<path d="M-579.414 328.555L561.586 975.555" stroke="white"/>
</g>
<g opacity="0.3">
<path d="M22.2852 -12.6367L1163.29 634.363" stroke="white"/>
<path d="M66.8555 -37.9102L1207.86 609.09" stroke="white"/>
<path d="M111.426 -63.1836L1252.43 583.816" stroke="white"/>
<path d="M155.996 -88.457L1297 558.543" stroke="white"/>
<path d="M200.566 -113.73L1341.57 533.27" stroke="white"/>
<path d="M245.137 -139.004L1386.14 507.996" stroke="white"/>
<path d="M289.707 -164.277L1430.71 482.723" stroke="white"/>
<path d="M334.277 -189.551L1475.28 457.449" stroke="white"/>
<path d="M378.848 -214.824L1519.85 432.176" stroke="white"/>
<path d="M423.418 -240.098L1564.42 406.902" stroke="white"/>
<path d="M467.988 -265.371L1608.99 381.629" stroke="white"/>
<path d="M512.559 -290.645L1653.56 356.355" stroke="white"/>
<path d="M557.129 -315.918L1698.13 331.082" stroke="white"/>
<path d="M-22.2852 12.6367L1118.71 659.637" stroke="white"/>
<path d="M-66.8555 37.9102L1074.14 684.91" stroke="white"/>
<path d="M-111.426 63.1836L1029.57 710.184" stroke="white"/>
<path d="M-155.996 88.457L985.004 735.457" stroke="white"/>
<path d="M-200.566 113.73L940.434 760.73" stroke="white"/>
<path d="M-245.137 139.004L895.863 786.004" stroke="white"/>
<path d="M-289.707 164.277L851.293 811.277" stroke="white"/>
<path d="M-334.277 189.551L806.723 836.551" stroke="white"/>
<path d="M-378.848 214.824L762.152 861.824" stroke="white"/>
<path d="M-423.418 240.098L717.582 887.098" stroke="white"/>
<path d="M-467.988 265.371L673.012 912.371" stroke="white"/>
<path d="M-512.559 290.645L628.441 937.645" stroke="white"/>
<path d="M-557.129 315.918L583.871 962.918" stroke="white"/>
</g>
</g>
</svg>
